# xmcd
#
# Track frame offsets:
#	150
#	12745
#	43630
#	54522
#	85585
#	98255
#	114797
#	135867
#	157670
#	172937
#
# Disc length: 2565 seconds
#
# Revision: 4
# Processed by: cddbd v1.5.2PL0 Copyright (c) Steve Scherf et al.
# Submitted via: audiograbber 1.83.01
#
DISCID=5e0a030a
DTITLE=Various Artist - Not The Same Old Blues Crap
DYEAR=1997
DGENRE=Nu Blues
TTITLE0=T-Model Ford - I'm Insane
TTITLE1=Jr. Kimbrough - Meet Me In The City
TTITLE2=20 Miles - Come Right In
TTITLE3=R. L. Burnside - Snake Drive
TTITLE4=The Neckbones - Crack Whore Blues
TTITLE5=Jr. Kimbrough - Lonesome Road
TTITLE6=Jelly Roll Kings - Have Mercy
TTITLE7=R. L. Burnside - Shake 'Em On Down
TTITLE8=Elmo Williams - Been Here And Gone
TTITLE9=Robert Cage - Little Eddie Blues
EXTD=
EXTT0=
EXTT1=
EXTT2=
EXTT3=
EXTT4=
EXTT5=
EXTT6=
EXTT7=
EXTT8=
EXTT9=
PLAYORDER=
